<svg width="36" height="36" viewBox="0 0 36 36" fill="none" xmlns="http://www.w3.org/2000/svg">
<path fill-rule="evenodd" clip-rule="evenodd" d="M17.9094 33C17.9094 33 21.2967 33 21.2967 22.9326C21.2967 21.0571 19.7792 19.5314 17.9094 19.5314C16.0396 19.5314 14.5221 21.0571 14.5221 22.9326C14.5221 33 17.9094 33 17.9094 33ZM22.0651 29.5678C22.2141 28.9925 22.3283 28.4114 22.4193 27.8244L22.487 27.358C22.636 27.2958 22.7851 27.2316 22.9322 27.1636C25.284 26.0947 27.2641 24.2678 28.5261 22.0074C29.1009 20.9696 29.5248 19.8501 29.7765 18.684C30.0668 17.3818 30.1442 16.0253 29.9894 14.6959C29.8539 13.4521 29.5248 12.2354 29.0022 11.0946C28.4022 9.75353 27.5699 8.52911 26.5246 7.49904C25.4601 6.4301 24.2019 5.55552 22.8277 4.95303C21.4147 4.31166 19.8662 3.98126 18.2984 3.94239C16.7306 3.90352 15.1627 4.15618 13.6918 4.7198C12.2788 5.26399 10.9819 6.06083 9.85928 7.0909C8.7947 8.06266 7.88498 9.24822 7.22688 10.5504C6.66556 11.6582 6.27845 12.8437 6.06553 14.0681C5.85262 15.3315 5.85262 16.6336 6.04618 17.9164C6.22038 19.0436 6.54942 20.1514 7.03333 21.2009C8.17532 23.6303 10.1109 25.6516 12.511 26.876C12.8014 27.0121 13.0917 27.1481 13.4014 27.2842C13.4208 27.4396 13.4595 27.6145 13.4788 27.7894C13.5756 28.3531 13.6918 28.9361 13.8272 29.4997C13.3046 29.3249 12.782 29.1304 12.2788 28.8973C9.51087 27.6339 7.16881 25.4572 5.71712 22.7557C5.05903 21.5313 4.59449 20.2291 4.30415 18.8687C3.9751 17.3722 3.91703 15.7979 4.11059 14.2625C4.30415 12.8243 4.71062 11.4055 5.31065 10.1034C6.02682 8.56798 7.03333 7.1492 8.23339 5.96366C9.41216 4.78005 10.8832 3.78885 12.4897 3.10862C14.1659 2.40118 15.968 2.02413 17.7797 2.00081C19.5952 1.98137 21.4128 2.31177 23.1026 2.9784C24.7323 3.62365 26.2343 4.57986 27.5156 5.77708C28.7545 6.93347 29.7803 8.31144 30.5313 9.83127C31.1701 11.114 31.6153 12.5133 31.8282 13.9321C32.0604 15.4092 32.0604 16.9251 31.8088 18.3828C31.5959 19.7432 31.1507 21.0843 30.5507 22.3281C29.1957 25.0685 26.9505 27.323 24.2214 28.6835C23.5438 29.0138 22.8277 29.3054 22.0921 29.5386L22.0651 29.5678ZM22.7348 24.0209L22.7464 23.4146C22.7464 23.0064 22.7464 22.5983 22.6884 22.196C22.669 22.0405 22.6303 21.9045 22.5916 21.749C23.3077 21.1659 23.9078 20.4274 24.353 19.5917C24.682 18.9697 24.9336 18.2895 25.0691 17.5898C25.2239 16.8124 25.2627 15.9961 25.1465 15.1798C25.0497 14.4607 24.8562 13.7611 24.5658 13.1003C24.1981 12.3034 23.6949 11.5649 23.0755 10.943C22.4367 10.321 21.7205 9.81572 20.9076 9.44645C20.0172 9.05774 19.0494 8.82452 18.0817 8.80509C17.1138 8.78565 16.1267 8.96057 15.217 9.31041C14.404 9.6408 13.6492 10.1073 12.9911 10.7097C12.333 11.3123 11.791 12.0119 11.4039 12.8088C11.0748 13.4501 10.8426 14.1304 10.7071 14.8495C10.5716 15.588 10.5522 16.346 10.649 17.0845C10.7458 17.8036 10.9393 18.5033 11.2297 19.1641C11.6749 20.1553 12.333 21.0298 13.1459 21.749L13.0297 22.2737C12.9523 22.6818 12.9717 23.0705 12.9717 23.4981V24.0423C11.6168 23.2066 10.4941 22.0016 9.73927 20.6023C9.29408 19.8054 8.98439 18.9503 8.81019 18.0562C8.59728 17.0651 8.55857 16.035 8.69406 15.0244C8.81019 14.1109 9.06181 13.2169 9.42958 12.4006C9.87476 11.3899 10.5329 10.4571 11.3071 9.66024C12.1007 8.86339 13.0297 8.22203 14.0363 7.77502C15.1589 7.2697 16.3783 6.99761 17.5978 6.95874C18.8365 6.93931 20.0753 7.15309 21.2173 7.6001C22.2625 8.00824 23.2109 8.61074 24.0432 9.36871C24.8562 10.1267 25.553 11.0207 26.0562 12.0119C26.4628 12.8282 26.7724 13.7027 26.9273 14.5968C27.0821 15.5297 27.1208 16.482 26.9853 17.4149C26.8692 18.3283 26.6175 19.2224 26.2304 20.0581C25.4756 21.749 24.1787 23.2066 22.5916 24.1589L22.7348 24.0209ZM17.9094 11.6524C19.7946 11.6524 21.3237 13.1877 21.3237 15.0827C21.3237 16.9874 19.7946 18.5227 17.9094 18.5227C16.0241 18.5227 14.495 16.9874 14.495 15.1021C14.495 13.2169 16.0241 11.6795 17.9094 11.6795V11.6524Z" fill="#9A6042"/>
</svg>
