<svg width="36" height="36" viewBox="0 0 36 36" fill="none" xmlns="http://www.w3.org/2000/svg">
<path d="M18 3C9.7155 3 3 9.7155 3 18C3 26.2845 9.7155 33 18 33C26.2845 33 33 26.2845 33 18C33 9.7155 26.2845 3 18 3ZM24.879 24.636C24.609 25.0785 24.0345 25.2165 23.5935 24.9465C20.0715 22.794 15.6375 22.3065 10.416 23.5005C9.9135 23.616 9.411 23.301 9.297 22.797C9.1815 22.2945 9.495 21.792 10.0005 21.678C15.714 20.3715 20.616 20.934 24.57 23.3505C25.0095 23.619 25.149 24.195 24.879 24.636ZM26.715 20.55C26.376 21.1005 25.656 21.273 25.107 20.9355C21.0765 18.4575 14.9295 17.739 10.1595 19.1865C9.54 19.3755 8.8875 19.026 8.7 18.4095C8.5125 17.79 8.862 17.1375 9.48 16.95C14.928 15.297 21.7005 16.098 26.331 18.942C26.88 19.281 27.0525 20.0025 26.715 20.55ZM26.8725 16.2975C22.038 13.4265 14.0625 13.1625 9.4455 14.5635C8.706 14.7885 7.9215 14.37 7.6965 13.629C7.473 12.8865 7.89 12.1035 8.6325 11.8785C13.9305 10.2705 22.7385 10.581 28.305 13.8855C28.9725 14.2815 29.19 15.1425 28.7955 15.8085C28.3995 16.4745 27.5385 16.6935 26.8725 16.2975Z" fill="#9A6042"/>
</svg>
