<svg width="36" height="36" viewBox="0 0 36 36" fill="none" xmlns="http://www.w3.org/2000/svg">
<path d="M24.4194 18.3034C24.4194 18.7204 24.3498 20.3597 24.2861 20.7582C24.1612 21.5089 23.8916 22.2283 23.4924 22.8764C23.1102 23.5135 22.625 24.0828 22.0565 24.5614C20.8641 25.5556 19.3566 26.0926 17.8043 26.0761C16.6271 26.0617 15.475 25.7328 14.4678 25.1234C14.1503 24.9246 13.8491 24.7008 13.5671 24.4543C12.9989 23.954 12.5201 23.3607 12.1511 22.6997C11.7639 22.0102 11.5093 21.2544 11.4003 20.4712C11.2333 19.3218 11.3757 18.1488 11.8129 17.0727C12.25 15.9967 12.966 15.0566 13.8873 14.3494C14.4771 13.8939 15.1409 13.5435 15.8497 13.3135C17.387 12.8118 19.0556 12.8968 20.534 13.5519C20.7106 13.6298 20.8844 13.7154 21.0522 13.8103C21.2201 13.9052 21.3851 14.0191 21.5476 14.13C21.8692 14.3448 22.1701 14.5892 22.4463 14.8598C22.5777 14.9903 22.7037 15.126 22.8259 15.2652C22.8862 15.3338 22.9456 15.4034 23.0039 15.4729C23.0579 15.5477 23.1203 15.6162 23.1898 15.6769C23.1674 15.524 23.1543 15.3712 23.127 15.2194C23.1001 15.0617 23.0849 14.9022 23.0818 14.7421C23.072 14.4171 23.0949 0.257967 23.0949 0.173789C23.0949 0.12513 23.0803 0.0458169 23.1081 0.000564675C23.1358 -0.0446876 31.5834 2.64466 31.5834 2.75414C31.5834 2.91909 31.5795 7.86327 31.5795 8.19512C31.5864 8.25589 31.5833 8.31737 31.5702 8.37711C31.5668 8.38636 31.5571 8.417 31.5478 8.4209C31.5386 8.42479 31.5021 8.40679 31.4919 8.40339C31.4486 8.39024 24.47 6.24101 24.4515 6.23857C24.433 6.23614 24.4276 6.23857 24.4179 6.26387C24.4082 6.28917 24.4209 17.4641 24.4194 18.3034Z" fill="#9A6042"/>
<path d="M25.7265 9.03863V10.7343C25.892 10.882 26.0542 11.0344 26.2131 11.1918C28.2285 13.2115 29.4305 15.9021 29.5898 18.7508C29.7492 21.5996 28.8548 24.4074 27.0772 26.6393C25.2996 28.8711 22.763 30.3709 19.9508 30.8529C17.1386 31.3349 14.2473 30.7653 11.8279 29.2528C9.40857 27.7403 7.63027 25.3905 6.83189 22.6512C6.0335 19.912 6.27086 16.9748 7.49871 14.3992C8.72656 11.8237 10.8591 9.78989 13.4899 8.6855C16.1207 7.58107 19.0659 7.48316 21.7643 8.41045V7.02903C20.5341 6.65362 19.255 6.46323 17.9689 6.46411C10.8069 6.46411 5 12.2705 5 19.4335C5 26.5965 10.8069 32.4029 17.9689 32.4029C25.131 32.4029 30.9388 26.5965 30.9388 19.4335C30.9405 17.4144 30.4701 15.423 29.5651 13.6181C28.66 11.8133 27.3455 10.245 25.7265 9.03863Z" fill="#9A6042"/>
</svg>
