<svg version="1.1" id="Layer_1" xmlns="http://www.w3.org/2000/svg" xmlns:xlink="http://www.w3.org/1999/xlink" x="0px" y="0px"
	 viewBox="0 0 24 24" style="enable-background:new 0 0 24 24;" xml:space="preserve">
<style type="text/css">
	.st0{fill:#9A6042;}
</style>
<g>
	<path class="st0" d="M22,6.9c-0.1-0.4-0.3-0.9-0.7-1.2c-0.3-0.3-0.7-0.6-1.2-0.7c-2.7-0.3-5.4-0.5-8.2-0.4c-2.7,0-5.5,0.1-8.2,0.4
		C3.4,5.2,3,5.4,2.6,5.8C2.3,6.1,2.1,6.5,2,6.9C1.7,8.6,1.5,10.3,1.5,12c0,1.7,0.1,3.4,0.4,5.1c0.1,0.4,0.4,0.8,0.7,1.2
		c0.3,0.3,0.7,0.6,1.2,0.7c2.7,0.3,5.4,0.5,8.2,0.4c2.7,0,5.5-0.1,8.2-0.4c0.4-0.1,0.8-0.3,1.2-0.7c0.3-0.3,0.6-0.7,0.7-1.2
		c0.3-1.7,0.4-3.4,0.4-5.1C22.5,10.3,22.3,8.6,22,6.9z M9.5,15.5V8.5l6.2,3.5L9.5,15.5L9.5,15.5z"/>
</g>
</svg>
